HIERARCHY
ROOT Hips
{
	OFFSET	0.00	0.00	0.00
	CHANNELS 6 Xposition Yposition Zposition Zrotation Xrotation Yrotation
	JOINT LeftUpLeg
	{
		OFFSET	 0.126116	-0.014019	-0.065224
		CHANNELS 3 Zrotation Xrotation Yrotation
		JOINT LeftLeg
		{
			OFFSET	 0.000000	 0.000000	 0.569914
			CHANNELS 3 Zrotation Xrotation Yrotation
			JOINT LeftFoot
			{
				OFFSET	 0.000000	 0.000000	 0.544423
				CHANNELS 3 Zrotation Xrotation Yrotation
				JOINT LeftToeBase
				{
					OFFSET	 0.000000	 0.000000	 0.207117
					CHANNELS 3 Zrotation Xrotation Yrotation
					End Site
					{
						OFFSET	 0.000000	 0.000000	 0.207117
					}
				}
			}
		}
	}
	JOINT RightUpLeg
	{
		OFFSET	-0.124023	-0.008373	-0.065224
		CHANNELS 3 Zrotation Xrotation Yrotation
		JOINT RightLeg
		{
			OFFSET	 0.000000	 0.000000	 0.570047
			CHANNELS 3 Zrotation Xrotation Yrotation
			JOINT RightFoot
			{
				OFFSET	 0.000000	 0.000000	 0.544354
				CHANNELS 3 Zrotation Xrotation Yrotation
				JOINT RightToeBase
				{
					OFFSET	 0.000000	 0.000000	 0.207540
					CHANNELS 3 Zrotation Xrotation Yrotation
					End Site
					{
						OFFSET	 0.000000	 0.000000	 0.207540
					}
				}
			}
		}
	}
	JOINT Spine
	{
		OFFSET	 0.000184	-0.007763	 0.117403
		CHANNELS 3 Zrotation Xrotation Yrotation
		JOINT Spine1
		{
			OFFSET	 0.000000	 0.000000	 0.137269
			CHANNELS 3 Zrotation Xrotation Yrotation
			JOINT Spine2
			{
				OFFSET	 0.000000	 0.000000	 0.156879
				CHANNELS 3 Zrotation Xrotation Yrotation
				JOINT LeftShoulder
				{
					OFFSET	 0.080501	-0.002496	 0.160144
					CHANNELS 3 Zrotation Xrotation Yrotation
					JOINT LeftArm
					{
						OFFSET	 0.000000	 0.000000	 0.164363
						CHANNELS 3 Zrotation Xrotation Yrotation
						JOINT LeftForeArm
						{
							OFFSET	 0.000000	 0.000000	 0.364576
							CHANNELS 3 Zrotation Xrotation Yrotation
							JOINT LeftHand
							{
								OFFSET	 0.000000	 0.000000	 0.360812
								CHANNELS 3 Zrotation Xrotation Yrotation
								JOINT LeftHandIndex1
								{
									OFFSET	 0.000000	 0.000000	 0.086006
									CHANNELS 3 Zrotation Xrotation Yrotation
									JOINT LeftHandIndex2
									{
										OFFSET	 0.000000	 0.000000	 0.047236
										CHANNELS 3 Zrotation Xrotation Yrotation
										JOINT LeftHandIndex3
										{
											OFFSET	-0.004284	-0.000551	 0.038166
											CHANNELS 3 Zrotation Xrotation Yrotation
											End Site
											{
												OFFSET	-0.004284	-0.000551	 0.038166
											}
										}
									}
								}
							}
						}
					}
				}
				JOINT Neck
				{
					OFFSET	 0.000000	 0.000000	 0.176489
					CHANNELS 3 Zrotation Xrotation Yrotation
					JOINT Head
					{
						OFFSET	 0.000000	-0.001747	 0.077940
						CHANNELS 3 Zrotation Xrotation Yrotation
						End Site
						{
							OFFSET	 0.000000	-0.001747	 0.077940
						}
					}
				}
				JOINT RightShoulder
				{
					OFFSET	-0.080363	 0.000306	 0.159706
					CHANNELS 3 Zrotation Xrotation Yrotation
					JOINT RightArm
					{
						OFFSET	 0.000000	 0.000000	 0.164196
						CHANNELS 3 Zrotation Xrotation Yrotation
						JOINT RightForeArm
						{
							OFFSET	 0.000000	 0.000000	 0.365611
							CHANNELS 3 Zrotation Xrotation Yrotation
							JOINT RightHand
							{
								OFFSET	 0.000000	 0.000000	 0.360648
								CHANNELS 3 Zrotation Xrotation Yrotation
								JOINT RightHandIndex1
								{
									OFFSET	 0.000000	 0.000000	 0.069977
									CHANNELS 3 Zrotation Xrotation Yrotation
									JOINT RightHandIndex2
									{
										OFFSET	 0.000000	 0.000000	 0.052305
										CHANNELS 3 Zrotation Xrotation Yrotation
										JOINT RightHandIndex3
										{
											OFFSET	 0.009002	-0.000782	 0.042196
											CHANNELS 3 Zrotation Xrotation Yrotation
											End Site
											{
												OFFSET	 0.009002	-0.000782	 0.042196
											}
										}
									}
								}
							}
						}
					}
				}
			}
		}
	}
}
MOTION
Frames:    6
Frame Time: 0.03333334
 0.011861	 0.062816	 1.200114	 4.627348	-1.601192	-3.677642	 1.169161	-12.357690	-171.218400	 0.727407	-39.141710	 0.189711	 50.931530	 80.798550	-54.644980	-2.370416	 31.443730	-0.066049	-4.556032	-29.701860	-174.686400	 10.893930	-53.403060	 9.400547	 16.781790	 75.343360	-12.659660	 2.358383	 33.086670	 0.105238	 2.107378	 8.910769	 0.765422	 1.983551	 2.964293	 3.465665	-9.457362	-2.343512	-4.354743	-93.866620	 58.902400	 175.548900	 24.074840	 44.440370	-24.250570	-1.212294	-2.119428	-18.995080	 1.042807	-4.597465	-6.712678	-4.870519	 19.224560	-2.787825	-3.882485	 21.460570	 2.203729	-4.807140	 5.558678	 0.146199	-0.097965	-5.048809	 0.172902	-11.447050	 1.756409	 2.081569	 89.802670	 61.618500	-179.951100	-19.110900	 50.284810	 8.843919	-1.351114	-2.806715	 14.526500	-4.993471	 9.838711	 0.668720	 6.297909	 25.318970	-0.556701	 1.822135	 45.207800	-6.936554	 0.457534	 24.576920	 3.603259
 0.011495	 0.055739	 1.197721	 5.198608	-1.297855	-3.651730	 0.547277	-12.709130	-171.269000	 1.038543	-39.775070	 0.438785	 53.001060	 81.149860	-57.029060	-2.369432	 31.608910	-0.069788	-5.779226	-30.939590	-174.736600	 11.522470	-53.082470	 9.872478	 27.592650	 79.531620	-24.279590	 2.358910	 33.008850	 0.103428	 1.662956	 8.837893	 0.670522	 1.985860	 2.441725	 3.533717	-9.463964	-1.957278	-4.269285	-93.976170	 58.959340	 175.308400	 24.312910	 43.851070	-24.183350	-1.733341	-2.114506	-20.583970	 1.326209	-4.759818	-7.594353	-4.869600	 19.257490	-2.791904	-3.877500	 21.524240	 2.198661	-4.805995	 5.572112	 0.145413	-0.066634	-5.084763	 0.191671	-11.375420	 1.922543	 1.987943	 89.767170	 61.665890	 179.964400	-18.802340	 50.512190	 8.304610	-1.566785	-2.900277	 14.698790	-4.986930	 10.182740	 0.533850	 6.290225	 24.542490	-0.537757	 1.925834	 44.372570	-7.029038	 0.585201	 24.017080	 3.538512
 0.011115	 0.046691	 1.195264	 5.686100	-0.846613	-3.654574	 0.074898	-13.051090	-171.295500	 1.249341	-40.344400	 0.580486	 55.135030	 81.435460	-59.344480	-2.368598	 31.747600	-0.072937	-7.050219	-32.476140	-174.828700	 12.290370	-52.386390	 10.402780	 46.341150	 82.470840	-43.931400	 2.359004	 32.995880	 0.103125	 1.296837	 8.612160	 0.571086	 1.958192	 1.985806	 3.640367	-9.430107	-1.621814	-4.206141	-94.098140	 58.979060	 175.045900	 24.278420	 43.171700	-24.002190	-1.964631	-2.215571	-22.318920	 1.758490	-5.002718	-8.015806	-4.865311	 19.367190	-2.799089	-3.870608	 21.612190	 2.191660	-4.804447	 5.590414	 0.144344	-0.041574	-5.103074	 0.227565	-11.285160	 2.093388	 1.951118	 89.719780	 61.751560	 179.850900	-18.499640	 50.791460	 7.711629	-1.960890	-3.028184	 14.793970	-5.106116	 10.522140	 0.356223	 6.278206	 23.686520	-0.549733	 2.026460	 43.535230	-7.118346	 0.770276	 23.195530	 3.446483
 0.010718	 0.035204	 1.192718	 6.118470	-0.400901	-3.698358	-0.362362	-13.194200	-171.305300	 1.444357	-40.808230	 0.713464	 57.946830	 81.778510	-62.317470	-2.367641	 31.903760	-0.076485	-8.101112	-34.076260	-174.909600	 12.810430	-51.284320	 10.664400	 76.001410	 83.369830	-74.573420	 2.359358	 32.943150	 0.101903	 0.928294	 8.375256	 0.518824	 1.909948	 1.610187	 3.713183	-9.348335	-1.322640	-4.123668	-94.215100	 58.993550	 174.794400	 24.083570	 42.334710	-23.916830	-2.239242	-2.286134	-24.061140	 2.070353	-5.272158	-8.281685	-4.860015	 19.496970	-2.806515	-3.863148	 21.707150	 2.184084	-4.802071	 5.618470	 0.142700	-0.019844	-5.125549	 0.262977	-11.154690	 2.264605	 1.930295	 89.667270	 61.836200	 179.724300	-18.193120	 51.085900	 7.063056	-2.415654	-3.159233	 14.819850	-5.253903	 10.871770	 0.103972	 6.265067	 22.800130	-0.566756	 2.122703	 42.708600	-7.203360	 0.962921	 22.327810	 3.353028
 0.010502	 0.021052	 1.190072	 6.350608	 0.031217	-3.882777	-0.581257	-13.036990	-171.187100	 1.567137	-41.059190	 0.797743	 61.799350	 82.134360	-66.286100	-2.366253	 32.127700	-0.081586	-8.415280	-35.700750	-174.766200	 13.156830	-49.697510	 10.699490	 87.949170	 82.528270	-87.497940	 2.360703	 32.741990	 0.097244	 0.664102	 8.092353	 0.624458	 1.852262	 1.435493	 3.731192	-9.204902	-1.087760	-4.023577	-94.316190	 58.987920	 174.579800	 23.667310	 41.319000	-24.002400	-2.733418	-2.225785	-25.712890	 2.042346	-5.672911	-7.969066	-4.850902	 19.703770	-2.814894	-3.853484	 21.829940	 2.174259	-4.796567	 5.683271	 0.138897	-0.010101	-5.163981	 0.297268	-10.996670	 2.432904	 1.959765	 89.593990	 61.918700	 179.547200	-17.854970	 51.374640	 6.443703	-3.095099	-3.313030	 14.673700	-5.518963	 11.264090	-0.427862	 6.247555	 21.783840	-0.602407	 2.213356	 41.906020	-7.283034	 1.193431	 21.272950	 3.244434
 0.010230	 0.006884	 1.187651	 6.523415	 0.363238	-4.037360	-0.776350	-12.711130	-171.110200	 1.663318	-41.198200	 0.863329	 65.578140	 82.439120	-70.151640	-2.364644	 32.381280	-0.087399	-8.387583	-36.978130	-174.567100	 13.238110	-47.888850	 10.418360	 96.200180	 81.459630	-96.474900	 2.360753	 32.734320	 0.097072	 0.405980	 7.860736	 0.724447	 1.784696	 1.359300	 3.707587	-9.040998	-0.918210	-3.914261	-94.394260	 58.981980	 174.414400	 23.143340	 40.342910	-24.212580	-3.120548	-2.151532	-26.945500	 1.978428	-5.957533	-7.703105	-4.842717	 19.883350	-2.820880	-3.844632	 21.941970	 2.165269	-4.790593	 5.753536	 0.134769	-0.000734	-5.199201	 0.323033	-10.819480	 2.573805	 1.981700	 89.534070	 61.982650	 179.401400	-17.536050	 51.621000	 5.884415	-3.704678	-3.416447	 14.412890	-5.723448	 11.573910	-0.932143	 6.231382	 20.882150	-0.635167	 2.301184	 41.105450	-7.359849	 1.392786	 20.346230	 3.153423
